<?xml version="1.0" encoding="utf-8"?>
<!-- Generator: Adobe Illustrator 18.0.0, SVG Export Plug-In . SVG Version: 6.00 Build 0)  -->
<!DOCTYPE svg PUBLIC "-//W3C//DTD SVG 1.1//EN" "http://www.w3.org/Graphics/SVG/1.1/DTD/svg11.dtd">
<svg version="1.1" id="Layer_1" xmlns="http://www.w3.org/2000/svg" xmlns:xlink="http://www.w3.org/1999/xlink" x="0px" y="0px"
	 viewBox="0 0 64 64" enable-background="new 0 0 64 64" xml:space="preserve">
<g id="joystick">
	<g>
		<path fill="#FFFFFF" d="M25,34.4c1.4,0,2.5,1.1,2.5,2.5s-1.1,2.5-2.5,2.5s-2.5-1.1-2.5-2.5S23.6,34.4,25,34.4L25,34.4z M25,33.4
			c-1.9,0-3.5,1.6-3.5,3.5s1.6,3.5,3.5,3.5s3.5-1.6,3.5-3.5S26.9,33.4,25,33.4L25,33.4z"/>
		<path fill="#FFFFFF" d="M39,34.4c1.4,0,2.5,1.1,2.5,2.5s-1.1,2.5-2.5,2.5s-2.5-1.1-2.5-2.5S37.6,34.4,39,34.4L39,34.4z M39,33.4
			c-1.9,0-3.5,1.6-3.5,3.5s1.6,3.5,3.5,3.5s3.5-1.6,3.5-3.5S40.9,33.4,39,33.4L39,33.4z"/>
		<path fill="#FFFFFF" d="M62.2,47.8l-3.1-20c0-3.8-2-7.3-5.3-9.3l-0.4-1.9c-0.3-1.6-1.8-2.8-3.4-2.8h-4c-1.6,0-3.1,1.2-3.4,2.8
			l-0.4,1.9c-0.2,0.1-0.4,0.2-0.6,0.4H22.5c-0.2-0.1-0.4-0.3-0.6-0.4l-0.4-1.9c-0.3-1.6-1.8-2.8-3.4-2.8h-4c-1.6,0-3.1,1.2-3.4,2.8
			l-0.4,1.9c-3.2,2-5.2,5.5-5.3,9.3l-3.1,20c-0.6,3.8,2,7.4,5.8,8.1l0.2,0C8.5,56,8.9,56,9.3,56c3.4,0,6.9-2.2,8.3-5.1l3.7-8
			c1.1,0.7,2.4,1.1,3.7,1.1c2.3,0,4.4-1.1,5.7-3h2.5c1.3,1.9,3.5,3,5.7,3c1.4,0,2.8-0.4,3.9-1.2l3.8,8.2c1.4,3,4.9,5.1,8.3,5.1
			c0.4,0,0.8,0,1.3-0.1l0.2,0C60.2,55.2,62.8,51.6,62.2,47.8z M44.7,17.1c0.1-0.6,0.8-1.2,1.4-1.2h4c0.6,0,1.3,0.5,1.4,1.2l0.3,1.6
			c-1.2-0.5-2.5-0.8-3.9-0.8c-1.3,0-2.4,0.2-3.6,0.7L44.7,17.1z M48,18.9c5,0,9,4,9,9s-4,9-9,9c-1.1,0-2.1-0.2-3-0.6
			c-0.3-2.9-2.6-5.2-5.4-5.4c-0.3-0.9-0.6-2-0.6-3C39,22.9,43,18.9,48,18.9z M39,31.9c2.8,0,5,2.2,5,5s-2.2,5-5,5s-5-2.2-5-5
			S36.2,31.9,39,31.9z M12.7,17.1c0.1-0.6,0.8-1.2,1.4-1.2h4c0.6,0,1.3,0.5,1.4,1.2l0.3,1.6c-1.2-0.5-2.5-0.8-3.9-0.8
			c-1.3,0-2.4,0.2-3.6,0.7L12.7,17.1z M16,18.9c5,0,9,4,9,9c0,1.1-0.2,2.1-0.5,3c0.2,0,0.4,0,0.5,0c-3.1,0-5.7,2.4-6,5.5
			c-0.9,0.3-2,0.5-3,0.5c-5,0-9-4-9-9S11,18.9,16,18.9z M15.8,50c-1,2.3-3.8,4-6.4,4c-0.3,0-0.6,0-0.9-0.1l-0.2,0
			c-2.7-0.5-4.6-3-4.2-5.8l2.6-16.7c1.4,3.8,5.1,6.5,9.4,6.5c1,0,2-0.2,3-0.5c0,0,0,0,0,0l0,0c0,0,0,0,0,0c0.1,1.1,0.5,2.2,1.2,3
			L15.8,50z M25,41.9c-2.8,0-5-2.2-5-5s2.2-5,5-5s5,2.2,5,5S27.8,41.9,25,41.9z M30.6,38.9C30.6,38.9,30.6,38.9,30.6,38.9
			c0.2-0.6,0.4-1.3,0.4-2c0-3.1-2.4-5.7-5.4-6c0,0,0,0,0,0c0.3-1,0.5-2,0.5-3c0-2.7-1.1-5.2-2.9-7h17.7c-1.8,1.8-2.9,4.3-2.9,7
			c0,1,0.2,2,0.5,3c0,0,0,0,0,0c-3.1,0.3-5.5,2.8-5.5,6c0,0.7,0.1,1.4,0.3,2H30.6z M56.1,53.9l-0.2,0C55.6,54,55.3,54,55,54
			c-2.6,0-5.4-1.7-6.4-4L44,40.2c0.4-0.6,0.7-1.3,0.9-2c0,0,0,0,0,0c0.1-0.2,0.1-0.5,0.1-0.7c0,0,0,0,0,0c1,0.3,2,0.5,3,0.5
			c4.5,0,8.4-3,9.6-7.2l2.7,17.4C60.7,50.9,58.8,53.4,56.1,53.9z"/>
		<path fill="#FFFFFF" d="M53,24.9c-1.7,0-3,1.3-3,3s1.3,3,3,3s3-1.3,3-3S54.7,24.9,53,24.9z M53,29.9c-1.1,0-2-0.9-2-2s0.9-2,2-2
			s2,0.9,2,2S54.1,29.9,53,29.9z"/>
		<path fill="#FFFFFF" d="M43,24.9c-1.7,0-3,1.3-3,3s1.3,3,3,3s3-1.3,3-3S44.7,24.9,43,24.9z M43,29.9c-1.1,0-2-0.9-2-2s0.9-2,2-2
			s2,0.9,2,2S44.1,29.9,43,29.9z"/>
		<path fill="#FFFFFF" d="M48,19.9c-1.7,0-3,1.3-3,3s1.3,3,3,3s3-1.3,3-3S49.7,19.9,48,19.9z M48,24.9c-1.1,0-2-0.9-2-2s0.9-2,2-2
			s2,0.9,2,2S49.1,24.9,48,24.9z"/>
		<path fill="#FFFFFF" d="M48,29.9c-1.7,0-3,1.3-3,3s1.3,3,3,3s3-1.3,3-3S49.7,29.9,48,29.9z M48,34.9c-1.1,0-2-0.9-2-2s0.9-2,2-2
			s2,0.9,2,2S49.1,34.9,48,34.9z"/>
		<path fill="#FFFFFF" d="M16,20.9c1.1,0,2,0.9,2,2v3h3c1.1,0,2,0.9,2,2s-0.9,2-2,2h-3v3c0,1.1-0.9,2-2,2s-2-0.9-2-2v-3h-3
			c-1.1,0-2-0.9-2-2s0.9-2,2-2h3v-3C14,21.8,14.9,20.9,16,20.9L16,20.9z M16,19.9c-1.7,0-3,1.3-3,3v2h-2c-1.7,0-3,1.3-3,3s1.3,3,3,3
			h2v2c0,1.7,1.3,3,3,3s3-1.3,3-3v-2h2c1.7,0,3-1.3,3-3s-1.3-3-3-3h-2v-2C19,21.2,17.7,19.9,16,19.9L16,19.9z"/>
	</g>
</g>
</svg>
