<?xml version="1.0" encoding="utf-8"?>
<!-- Generator: Adobe Illustrator 18.0.0, SVG Export Plug-In . SVG Version: 6.00 Build 0)  -->
<!DOCTYPE svg PUBLIC "-//W3C//DTD SVG 1.1//EN" "http://www.w3.org/Graphics/SVG/1.1/DTD/svg11.dtd">
<svg version="1.1" id="Capa_1" xmlns="http://www.w3.org/2000/svg" xmlns:xlink="http://www.w3.org/1999/xlink" x="0px" y="0px"
	 viewBox="0 0 512 512" enable-background="new 0 0 512 512" xml:space="preserve">
<path fill="#FFFFFF" d="M505.7,149.9L362.1,6.3c-8.4-8.4-22.1-8.4-30.5,0l-86.1,86.1c-4.1,4.1-6.3,9.5-6.3,15.2s2.2,11.2,6.3,15.2
	l66.1,66.1l-17.4,17.4l-23.1-23.1c-8.4-8.4-22.1-8.4-30.5,0l-3.9,3.9l-37.4-37.4c-4.1-4.1-9.5-6.3-15.2-6.3
	c-5.8,0-11.2,2.2-15.2,6.3L149.9,169c-8.4,8.4-8.4,22.1,0,30.5l37.4,37.4l-3.9,3.9c-4.1,4.1-6.3,9.5-6.3,15.2s2.2,11.2,6.3,15.2
	l23.1,23.1L189,311.7l-66.1-66.1c-8.4-8.4-22.1-8.4-30.5,0L6.3,331.7c-8.4,8.4-8.4,22.1,0,30.5l143.6,143.6
	c4.2,4.2,9.7,6.3,15.2,6.3s11-2.1,15.2-6.3l86.1-86.1c8.4-8.4,8.4-22.1,0-30.5L200.3,323l17.4-17.4l70.9,70.9
	c4.1,4.1,9.5,6.3,15.2,6.3s11.2-2.2,15.2-6.3l23.1-23.1l7.9,7.9c-32.9,34.6-52.8,70.5-50.9,93.1c0.3,3.1,2.3,5.8,5.2,6.9
	c0.9,0.3,1.8,0.5,2.8,0.5c2.1,0,4.1-0.8,5.7-2.3l67.7-67.7l23,23c-2.1,4-3.4,8.5-3.4,13.3c0,15.4,12.6,28,28,28s28-12.6,28-28
	s-12.6-28-28-28c-4.8,0-9.4,1.2-13.3,3.4l-23-23l67.7-67.7c2.2-2.2,2.9-5.5,1.9-8.4c-1.1-2.9-3.8-5-6.9-5.2
	c-22.5-1.8-58.5,18-93.1,50.9l-7.9-7.9l23.1-23.1c4.1-4.1,6.3-9.5,6.3-15.2c0-5.8-2.2-11.2-6.3-15.2l-70.9-70.9l17.4-17.4l66.1,66.1
	c4.2,4.2,9.7,6.3,15.2,6.3c5.5,0,11-2.1,15.2-6.3l86.1-86.1C514.1,171.9,514.1,158.2,505.7,149.9z M103.7,256.9c1-1,2.4-1.6,3.9-1.6
	s2.9,0.6,3.9,1.6l66.1,66.1l-41.3,41.3l-70-70L103.7,256.9z M169,494.4c-2.2,2.2-5.7,2.2-7.8,0L17.6,350.8c-1-1-1.6-2.4-1.6-3.9
	c0-1.5,0.6-2.9,1.6-3.9L55,305.6l70,70l-26.7,26.7c-3.1,3.1-3.1,8.2,0,11.3c1.6,1.6,3.6,2.3,5.7,2.3s4.1-0.8,5.7-2.3l26.7-26.7
	l70,70L169,494.4z M255.1,400.4c2.2,2.2,2.2,5.7,0,7.8l-37.4,37.4l-70-70l41.3-41.3L255.1,400.4z M440,428c0,6.6-5.4,12-12,12
	c-6.6,0-12-5.4-12-12c0-3,1.1-5.8,3-7.9c0.2-0.2,0.4-0.3,0.6-0.5s0.4-0.4,0.5-0.6c2.1-1.9,4.9-3,7.9-3C434.6,416,440,421.4,440,428z
	 M321.7,427.8c8-17.1,23.1-38.8,45.2-60.8c22.1-22.1,43.8-37.2,60.8-45.2L321.7,427.8z M161.2,188.1c-2.2-2.2-2.2-5.7,0-7.8
	l19.1-19.1c2.1-2.1,5.7-2.1,7.8,0l37.4,37.4l-27,27L161.2,188.1z M366.8,303.9c0,1.5-0.6,2.9-1.6,3.9l-57.4,57.4
	c-1,1-2.4,1.6-3.9,1.6c-1.5,0-2.9-0.6-3.9-1.6L194.7,259.9c-1-1-1.6-2.4-1.6-3.9c0-1.5,0.6-2.9,1.6-3.9l23.1-23.1
	c0.2,0.2,0.4,0.4,0.6,0.7l96,96c1.6,1.6,3.6,2.3,5.7,2.3c2,0,4.1-0.8,5.7-2.3c3.1-3.1,3.1-8.2,0-11.3l-96-96
	c-0.2-0.2-0.4-0.4-0.7-0.6l23.1-23.1c1.1-1.1,2.5-1.6,3.9-1.6c1.4,0,2.8,0.5,3.9,1.6l105.3,105.3C366.2,301,366.8,302.4,366.8,303.9
	z M256.9,111.6c-1-1-1.6-2.4-1.6-3.9c0-1.5,0.6-2.9,1.6-3.9l37.4-37.4l70,70L323,177.7L256.9,111.6z M408.3,255.1
	c-1,1-2.4,1.6-3.9,1.6c-1.5,0-2.9-0.6-3.9-1.6L334.3,189l41.3-41.3l70,70L408.3,255.1z M494.4,169L457,206.4l-70-70l26.7-26.7
	c3.1-3.1,3.1-8.2,0-11.3c-3.1-3.1-8.2-3.1-11.3,0l-26.7,26.7l-70-70L343,17.6c1.1-1.1,2.5-1.6,3.9-1.6c1.4,0,2.8,0.5,3.9,1.6
	l143.6,143.6c1,1,1.6,2.4,1.6,3.9C496,166.6,495.4,168,494.4,169z"/>
</svg>
