<?xml version="1.0" encoding="utf-8"?>
<!-- Generator: Adobe Illustrator 18.0.0, SVG Export Plug-In . SVG Version: 6.00 Build 0)  -->
<!DOCTYPE svg PUBLIC "-//W3C//DTD SVG 1.1//EN" "http://www.w3.org/Graphics/SVG/1.1/DTD/svg11.dtd">
<svg version="1.1" id="Layer_1" xmlns="http://www.w3.org/2000/svg" xmlns:xlink="http://www.w3.org/1999/xlink" x="0px" y="0px"
	 viewBox="0 0 64 64" enable-background="new 0 0 64 64" xml:space="preserve">
<g id="iwatch">
	<g>
		<path fill="#FFFFFF" d="M42,17c1.7,0,3,1.3,3,3v24c0,1.7-1.3,3-3,3H22c-1.7,0-3-1.3-3-3V20c0-1.7,1.3-3,3-3H42L42,17z M42,16H22
			c-2.2,0-4,1.8-4,4v24c0,2.2,1.8,4,4,4h20c2.2,0,4-1.8,4-4V20C46,17.8,44.2,16,42,16L42,16z"/>
		<path fill="#FFFFFF" d="M49,20c0-2.8-1.7-5.2-4.1-6.3c0-0.1-0.1-0.3-0.2-0.4c-0.4-0.5-1.3-3.6-2.6-9.5C42,2.8,41,2,40,2H24
			c-1,0-2,0.8-2.2,1.8c-1.2,5.9-2.2,9-2.5,9.5l-0.4,0.5C16.6,14.9,15,17.3,15,20v24c0,2.9,1.8,5.4,4.3,6.4c0.1,0.2,0.8,1.5,2.5,9.7
			C22,61,22.9,62,24,62h16c1.1,0,2-1,2.2-1.9c1.8-8.4,2.5-9.5,2.5-9.6l0.1-0.1c2.4-1.1,4.2-3.5,4.2-6.4V31c1.7,0,3-1.3,3-3v-5
			C52,21.3,50.7,20,49,20z M41.3,9H22.7c0.1-0.6,0.3-1.3,0.5-2h17.7C41,7.7,41.2,8.4,41.3,9z M24,4h16c0.1,0,0.2,0.1,0.2,0.2
			c0.1,0.6,0.3,1.2,0.4,1.8H23.4c0.1-0.6,0.3-1.2,0.4-1.8C23.8,4.1,23.9,4,24,4z M22.4,10h19.1c0.6,2.3,1,3.4,1.3,4H21.2
			C21.5,13.4,21.9,12.3,22.4,10z M22.7,55h18.5c-0.1,0.6-0.3,1.3-0.5,2H23.2C23,56.3,22.9,55.6,22.7,55z M40,60l-16,0
			c-0.1,0-0.2-0.2-0.3-0.3c-0.1-0.6-0.2-1.2-0.4-1.7h17.2c-0.1,0.5-0.2,1.1-0.4,1.7C40.2,59.8,40,60,40,60z M41.5,54h-19
			c-0.6-2.4-1-3.5-1.2-4h21.5C42.4,50.8,42,52.1,41.5,54z M47,44c0,2.8-2.2,5-5,5H22c-2.8,0-5-2.2-5-5V20c0-2.8,2.2-5,5-5h20
			c2.8,0,5,2.2,5,5V44z M50,28c0,0.5-0.5,1-1,1s-1-0.5-1-1v-5c0-0.3,0.1-0.5,0.3-0.7c0,0,0,0,0,0c0.2-0.2,0.4-0.3,0.7-0.3
			c0.5,0,1,0.5,1,1V28z"/>
	</g>
</g>
</svg>
