<?xml version="1.0" encoding="utf-8"?>
<!-- Generator: Adobe Illustrator 18.0.0, SVG Export Plug-In . SVG Version: 6.00 Build 0)  -->
<!DOCTYPE svg PUBLIC "-//W3C//DTD SVG 1.1//EN" "http://www.w3.org/Graphics/SVG/1.1/DTD/svg11.dtd">
<svg version="1.1" id="Layer_1" xmlns="http://www.w3.org/2000/svg" xmlns:xlink="http://www.w3.org/1999/xlink" x="0px" y="0px"
	 viewBox="16 2 32 60" enable-background="new 16 2 32 60" xml:space="preserve">
<g id="phone">
	<g>
		<rect x="22" y="56" fill="#37474F" width="2" height="1"/>
		<rect x="40" y="56" fill="#37474F" width="2" height="1"/>
		<rect x="31" y="56" fill="#37474F" width="2" height="2"/>
	</g>
	<g>
		<path fill="#37474F" d="M45,62H19c-1.7,0-3-1.3-3-3V5c0-1.7,1.3-3,3-3h26c1.7,0,3,1.3,3,3v54C48,60.7,46.7,62,45,62z M19,4
			c-0.6,0-1,0.4-1,1v54c0,0.6,0.4,1,1,1h26c0.6,0,1-0.4,1-1V5c0-0.6-0.4-1-1-1H19z"/>
		<path fill="#37474F" d="M44,10v44H20V10H44L44,10z M45,9H19v46h26V9L45,9z"/>
		<g>
			<rect x="28" y="6" fill="#37474F" width="1" height="1"/>
		</g>
		<g>
			<rect x="30" y="6" fill="#37474F" width="4" height="1"/>
		</g>
	</g>
</g>
</svg>
