<?xml version="1.0" encoding="utf-8"?>
<!-- Generator: Adobe Illustrator 18.0.0, SVG Export Plug-In . SVG Version: 6.00 Build 0)  -->
<!DOCTYPE svg PUBLIC "-//W3C//DTD SVG 1.1//EN" "http://www.w3.org/Graphics/SVG/1.1/DTD/svg11.dtd">
<svg version="1.1" id="Layer_1" xmlns="http://www.w3.org/2000/svg" xmlns:xlink="http://www.w3.org/1999/xlink" x="0px" y="0px"
	 viewBox="0 0 512 512" enable-background="new 0 0 512 512" xml:space="preserve">
<g transform="translate(1 1)">
	<g>
		<g>
			<path fill="#FFFFFF" d="M41,447.6v14.3c0,4.3,2.9,7.1,7.1,7.1H362c4.3,0,7.1-2.9,7.1-7.1v-14.3c0-12.1-9.3-21.4-21.4-21.4H197.9
				v-44.5c0.1-0.1,0.2-0.1,0.3-0.2c26.2,15.5,56.1,23.3,85.3,23.3c44.2,0,87.7-17.1,120.6-49.9c2.9-2.9,2.9-7.1,0-10L333.5,274
				v-69.9c2.3,0.6,4.7,0.9,7.1,0.9c15.7,0,28.5-12.8,28.5-28.5S356.3,148,340.6,148c-15.7,0-28.5,12.8-28.5,28.5
				c0,2.5,0.3,4.9,0.9,7.1h-69.6l-71.1-71.3c-2.9-2.9-7.1-2.9-10,0C110,164.6,97.2,243.6,130,309.7c-6.6,8.5-10.5,19.2-10.5,30.9
				c0,17.2,8.4,32.1,21.4,41.1v44.5H62.4C50.3,426.2,41,435.5,41,447.6z M133.7,340.6c0-9.9,3.9-18.7,10.2-25.1
				c1.7-1.7,3.5-3.2,5.4-4.5c5.7-3.8,12.6-6,20.1-6c20,0,35.7,15.7,35.7,35.7c0,0.6,0,1.3,0,1.9c-0.6,11.8-6.7,21.9-15.8,27.9
				c-0.7,0.2-1.4,0.5-2,0.9c-10.7,6.4-25,6.4-35.7,0c-0.6-0.4-1.3-0.7-2-0.9C140,364.1,133.7,353.2,133.7,340.6z M257.6,197.9h51.6
				l-25.9,25.9L257.6,197.9z M340.6,190.8c-3.1,0-5.9-1-8.2-2.6c-0.4-0.7-1-1.3-1.7-1.8c-0.5-0.7-1.1-1.2-1.8-1.7
				c-1.7-2.3-2.6-5.2-2.6-8.2c0-7.8,6.4-14.3,14.3-14.3s14.3,6.4,14.3,14.3C354.9,184.4,348.4,190.8,340.6,190.8z M319.2,259.7
				l-25.9-25.9l25.9-25.9V259.7z M208.8,371.4c2.4-3.1,4.4-6.5,6.1-10.1c0.2-0.3,0.3-0.7,0.5-1c0-0.1,0.1-0.2,0.1-0.3
				c1.9-4.5,3.1-9.2,3.6-14.2c0-0.1,0-0.1,0-0.2c0.1-0.7,0.1-1.4,0.2-2.2c0-0.2,0-0.3,0-0.5c0-0.8,0.1-1.6,0.1-2.5
				c0-27.8-22.1-49.9-49.9-49.9c-0.8,0-1.5,0-2.3,0.1c-0.2,0-0.4,0-0.6,0c-0.6,0-1.3,0.1-1.9,0.1c-0.1,0-0.3,0-0.4,0
				c-8.2,0.8-16.2,3.6-23.3,8.3c-27.1-57.8-16.4-124.8,26.4-171.9l67.3,67.3c0.6,1,1.4,1.9,2.4,2.4l152.1,152.1
				C339.9,394.8,267.3,403.3,208.8,371.4z M183.7,388.5v37.7h-28.5v-37.7c3.3,1,6.7,1.6,10.3,1.9c0.2,0,0.5,0,0.7,0.1
				c0.4,0,0.7,0,1.1,0.1c1.4,0.1,2.9,0.1,4.3,0c0.4,0,0.7,0,1.1-0.1c0.2,0,0.5,0,0.7-0.1C176.9,390.1,180.4,389.5,183.7,388.5
				L183.7,388.5z M55.3,454.7v-7.1c0-4.3,2.9-7.1,7.1-7.1H148h42.8h156.9c4.3,0,7.1,2.9,7.1,7.1v7.1H55.3L55.3,454.7z"/>
			<path fill="#FFFFFF" d="M354.9,112.3c-4.3,0-7.1,2.9-7.1,7.1c0,4.3,2.9,7.1,7.1,7.1c15.7,0,28.5,12.8,28.5,28.5
				c0,4.3,2.9,7.1,7.1,7.1c4.3,0,7.1-2.9,7.1-7.1C397.7,131.6,378.4,112.3,354.9,112.3z"/>
			<path fill="#FFFFFF" d="M419.1,148c0,4.3,2.9,7.1,7.1,7.1s7.1-2.9,7.1-7.1c0-39.2-32.1-71.3-71.3-71.3c-4.3,0-7.1,2.9-7.1,7.1
				s2.9,7.1,7.1,7.1C393.4,90.9,419.1,116.6,419.1,148z"/>
			<path fill="#FFFFFF" d="M454.7,148c0,4.3,2.9,7.1,7.1,7.1s7.1-2.9,7.1-7.1c0-59.2-47.8-107-107-107c-4.3,0-7.1,2.9-7.1,7.1
				s2.9,7.1,7.1,7.1C413.4,55.3,454.7,96.6,454.7,148z"/>
			<path fill="#FFFFFF" d="M162.3,340.6c0,4.3,2.9,7.1,7.1,7.1s7.1-2.9,7.1-7.1c0-4.3-2.9-7.1-7.1-7.1S162.3,336.3,162.3,340.6z"/>
		</g>
	</g>
</g>
</svg>
