<?xml version="1.0" encoding="utf-8"?>
<!-- Generator: Adobe Illustrator 18.0.0, SVG Export Plug-In . SVG Version: 6.00 Build 0)  -->
<!DOCTYPE svg PUBLIC "-//W3C//DTD SVG 1.1//EN" "http://www.w3.org/Graphics/SVG/1.1/DTD/svg11.dtd">
<svg version="1.1" id="Layer_1" xmlns="http://www.w3.org/2000/svg" xmlns:xlink="http://www.w3.org/1999/xlink" x="0px" y="0px"
	 viewBox="0 0 64 64" enable-background="new 0 0 64 64" xml:space="preserve">
<g id="camera_2_">
	<g>
		<path fill="#FFFFFF" d="M45,13c-3.9,0-7,3.1-7,7s3.1,7,7,7s7-3.1,7-7S48.9,13,45,13z M45,25c-2.8,0-5-2.2-5-5s2.2-5,5-5s5,2.2,5,5
			S47.8,25,45,25z"/>
	</g>
	<g>
		<path fill="#FFFFFF" d="M45,17.5c-1.4,0-2.5,1.1-2.5,2.5s1.1,2.5,2.5,2.5s2.5-1.1,2.5-2.5S46.4,17.5,45,17.5z M45,21
			c-0.6,0-1-0.4-1-1s0.4-1,1-1s1,0.4,1,1S45.6,21,45,21z"/>
	</g>
	<g>
		<path fill="#FFFFFF" d="M22,30c-1.7,0-3,1.3-3,3c0,1.7,1.3,3,3,3s3-1.3,3-3S23.7,30,22,30z M22,35c-1.1,0-2-0.9-2-2s0.9-2,2-2
			s2,0.9,2,2S23.1,35,22,35z"/>
	</g>
	<g>
		<g>
			<rect x="38" y="36" fill="#FFFFFF" width="14" height="2"/>
		</g>
	</g>
	<g>
		<path fill="#FFFFFF" d="M28,12H15c-0.6,0-1,0.4-1,1v13c0,0.5,0.4,1,1,1h13c0.5,0,1-0.5,1-1V13C29,12.4,28.5,12,28,12z M16,25h-1
			v-4h1V25z M16,18h-1v-4h1V18z M27,25H17V14h10V25z"/>
		<path fill="#FFFFFF" d="M54,6H28V3.6l-0.3-0.3C27.5,3.1,26.2,2,22,2s-5.5,1.1-5.7,1.3L16,3.6V6h-2c-3.3,0-6,2.7-6,6v16H5v9h3v1
			c0,2.6,1.7,4.8,4,5.7V48h15v8h-3c-1.1,0-2,0.9-2,2v4h23v-4c0-1.1-0.9-2-2-2h-3v-8h15v-4.3c2.3-0.8,4-3,4-5.7V11
			C59,8.3,56.8,6,54,6z M9,35H7v-5h2V35z M18,4.6C18.5,4.3,19.7,4,22,4c2.3,0,3.5,0.4,4,0.6V7h-8V4.6z M43,58l-2.2,1.4
			C40.4,59.8,39.6,60,39,60H28c-0.6,0-1.4-0.2-1.8-0.6L24,58H43z M30,56V45h2v11H30z M35,56V45h2v11H35z M53,46H38v-2h-9v2H14v-3h39
			V46z M57,38c0,2.2-1.8,4-4,4H14c-2.2,0-4-1.8-4-4V12c0-2.2,1.8-4,4-4h18c-0.6,0.8-1,1.9-1,3v18c0,2.8,2.3,5,5,5h18
			c1.1,0,2.2-0.4,3-1V38z M58,29c0,2.2-1.8,4-4,4H36c-2.2,0-4-1.8-4-4V11c0-2.2,1.8-4,4-4h18c2.2,0,4,1.8,4,4V29z"/>
		<path fill="#FFFFFF" d="M54,8H36c-1.7,0-3,1.4-3,3v18c0,1.6,1.3,3,3,3h18c1.7,0,3-1.4,3-3V11C57,9.4,55.7,8,54,8z M54,28
			c0,0.5-0.5,1-1,1H37c-0.5,0-1-0.5-1-1V12c0-0.6,0.5-1,1-1h16c0.5,0,1,0.4,1,1V28z"/>
		<path fill="#FFFFFF" d="M25.5,29.5c-2-2-5.1-2-7.1,0c-2,2-2,5.1,0,7.1c2,2,5.1,2,7.1,0C27.5,34.6,27.5,31.4,25.5,29.5z M24.8,35.8
			c-1.6,1.6-4.1,1.6-5.7,0s-1.6-4.1,0-5.7c1.6-1.6,4.1-1.6,5.7,0C26.4,31.7,26.4,34.3,24.8,35.8z"/>
	</g>
</g>
</svg>
