<?xml version="1.0" encoding="utf-8"?>
<!-- Generator: Adobe Illustrator 18.0.0, SVG Export Plug-In . SVG Version: 6.00 Build 0)  -->
<!DOCTYPE svg PUBLIC "-//W3C//DTD SVG 1.1//EN" "http://www.w3.org/Graphics/SVG/1.1/DTD/svg11.dtd">
<svg version="1.1" id="Layer_1" xmlns="http://www.w3.org/2000/svg" xmlns:xlink="http://www.w3.org/1999/xlink" x="0px" y="0px"
	 viewBox="0 0 64 64" enable-background="new 0 0 64 64" xml:space="preserve">
<g>
	<g>
		<path fill="#FFFFFF" d="M19.6,39.6c-0.2,0-0.3-0.1-0.4-0.3l-1.1-2.3l-1.8-0.3l-1.8,1.8c-0.1,0.1-0.3,0.2-0.5,0.1l-2.5-1.2
			c-0.2-0.1-0.3-0.3-0.3-0.4l0.2-2.5l-1.4-1.2L7.7,34c-0.2,0-0.4,0-0.5-0.2l-1.6-2.2c-0.1-0.2-0.1-0.4,0-0.5L7.1,29l-0.6-1.7
			l-2.4-0.6c-0.2,0-0.3-0.2-0.3-0.4l-0.2-2.7c0-0.2,0.1-0.4,0.3-0.4L6,22.1l0.3-1.8l-1.8-1.8c-0.1-0.1-0.2-0.3-0.1-0.5l1.2-2.5
			c0.1-0.2,0.3-0.3,0.4-0.3l2.5,0.2l1.2-1.4l-0.7-2.4c0-0.2,0-0.4,0.2-0.5l2.2-1.6c0.2-0.1,0.4-0.1,0.5,0l2.1,1.4l1.7-0.6L16.4,8
			c0-0.2,0.2-0.3,0.4-0.3l2.7-0.2c0.2,0,0.4,0.1,0.4,0.3L21,10l1.8,0.3l1.8-1.8c0.1-0.1,0.3-0.2,0.5-0.1l2.5,1.2
			c0.2,0.1,0.3,0.3,0.3,0.4l-0.2,2.5l1.4,1.2l2.4-0.7c0.2,0,0.4,0,0.5,0.2l1.6,2.2c0.1,0.2,0.1,0.4,0,0.5L32.1,18l0.6,1.7l2.4,0.6
			c0.2,0,0.3,0.2,0.3,0.4l0.2,2.7c0,0.2-0.1,0.4-0.3,0.4L33.2,25l-0.3,1.8l1.8,1.8c0.1,0.1,0.2,0.3,0.1,0.5l-1.2,2.5
			c-0.1,0.2-0.3,0.3-0.4,0.3l-2.5-0.2L29.4,33l0.7,2.4c0,0.2,0,0.4-0.2,0.5l-2.2,1.6c-0.2,0.1-0.4,0.1-0.5,0L25.1,36l-1.7,0.6
			l-0.6,2.4c0,0.2-0.2,0.3-0.4,0.3L19.6,39.6C19.6,39.6,19.6,39.6,19.6,39.6z M16.2,35.9C16.2,35.9,16.2,35.9,16.2,35.9l2.3,0.4
			c0.1,0,0.3,0.1,0.3,0.2l1,2.2l2.1-0.2l0.6-2.3c0-0.1,0.1-0.3,0.3-0.3l2.2-0.8c0.1,0,0.3,0,0.4,0.1l2,1.4l1.7-1.2L28.5,33
			c0-0.1,0-0.3,0.1-0.4l1.5-1.8c0.1-0.1,0.2-0.2,0.4-0.2l2.4,0.2l0.9-1.9L32,27.3c-0.1-0.1-0.1-0.2-0.1-0.4l0.4-2.3
			c0-0.1,0.1-0.3,0.2-0.3l2.2-1l-0.2-2.1l-2.3-0.6c-0.1,0-0.3-0.1-0.3-0.3l-0.8-2.2c0-0.1,0-0.3,0.1-0.4l1.4-2L31.4,14l-2.3,0.6
			c-0.1,0-0.3,0-0.4-0.1L26.9,13c-0.1-0.1-0.2-0.2-0.2-0.4l0.2-2.4L25,9.4l-1.7,1.7c-0.1,0.1-0.2,0.1-0.4,0.1l-2.3-0.4
			c-0.1,0-0.3-0.1-0.3-0.2l-1-2.2l-2.1,0.2l-0.6,2.3c0,0.1-0.1,0.3-0.3,0.3L14.2,12c-0.1,0-0.3,0-0.4-0.1l-2-1.4L10,11.7l0.6,2.3
			c0,0.1,0,0.3-0.1,0.4l-1.5,1.8c-0.1,0.1-0.2,0.2-0.4,0.2l-2.4-0.2l-0.9,1.9l1.7,1.7c0.1,0.1,0.1,0.2,0.1,0.4l-0.4,2.3
			c0,0.1-0.1,0.3-0.2,0.3l-2.2,1l0.2,2.1l2.3,0.6c0.1,0,0.3,0.1,0.3,0.3L8,29c0,0.1,0,0.3-0.1,0.4l-1.4,2l1.2,1.7l2.3-0.6
			c0.1,0,0.3,0,0.4,0.1l1.8,1.5c0.1,0.1,0.2,0.2,0.2,0.4l-0.2,2.4l1.9,0.9l1.7-1.7C15.9,35.9,16.1,35.9,16.2,35.9z"/>
	</g>
	<g>
		<path fill="#FFFFFF" d="M19.6,30.8c-4,0-7.2-3.2-7.2-7.2s3.2-7.2,7.2-7.2s7.2,3.2,7.2,7.2S23.6,30.8,19.6,30.8z M19.6,16.8
			c-3.7,0-6.7,3-6.7,6.7s3,6.7,6.7,6.7s6.7-3,6.7-6.7S23.3,16.8,19.6,16.8z"/>
	</g>
</g>
<g>
	<g>
		<path fill="#FFFFFF" d="M36.5,58.6c-0.2,0-0.3-0.1-0.4-0.3l-1.4-2.9l-1.9-0.3l-2.3,2.2c-0.1,0.1-0.4,0.2-0.5,0.1l-2.7-1.7
			c-0.2-0.1-0.2-0.3-0.2-0.5l1.1-3l-1.1-1.6l-3.2,0c-0.2,0-0.4-0.1-0.4-0.3l-0.7-3.1c0-0.2,0.1-0.4,0.2-0.5l2.9-1.4l0.3-1.9
			l-2.2-2.3C24,41,23.9,40.8,24,40.6l1.7-2.7c0.1-0.2,0.3-0.2,0.5-0.2l3,1.1l1.6-1.1l0-3.2c0-0.2,0.1-0.4,0.3-0.4l3.1-0.7
			c0.2,0,0.4,0.1,0.5,0.2l1.4,2.9l1.9,0.3l2.3-2.2c0.1-0.1,0.4-0.2,0.5-0.1l2.7,1.7c0.2,0.1,0.2,0.3,0.2,0.5l-1.1,3l1.1,1.6l3.2,0
			c0.2,0,0.4,0.1,0.4,0.3l0.7,3.1c0,0.2-0.1,0.4-0.2,0.5l-2.9,1.4l-0.3,1.9l2.2,2.3c0.1,0.1,0.2,0.4,0.1,0.5L45.2,54
			c-0.1,0.2-0.3,0.3-0.5,0.2l-3-1.1l-1.6,1.1l0,3.2c0,0.2-0.1,0.4-0.3,0.4L36.5,58.6C36.6,58.6,36.6,58.6,36.5,58.6z M32.7,54.2
			C32.8,54.2,32.8,54.2,32.7,54.2l2.4,0.4c0.1,0,0.3,0.1,0.3,0.2l1.3,2.8l2.4-0.5l0-3.1c0-0.1,0.1-0.3,0.2-0.4l1.9-1.4
			c0.1-0.1,0.3-0.1,0.4-0.1l2.9,1l1.3-2.1L43.8,49c-0.1-0.1-0.1-0.2-0.1-0.4l0.4-2.3c0-0.1,0.1-0.3,0.2-0.3l2.8-1.3l-0.5-2.4l-3.1,0
			c-0.1,0-0.3-0.1-0.4-0.2l-1.4-1.9c-0.1-0.1-0.1-0.3-0.1-0.4l1-2.9l-2.1-1.3l-2.2,2.2c-0.1,0.1-0.2,0.1-0.4,0.1l-2.3-0.4
			c-0.1,0-0.3-0.1-0.3-0.2l-1.3-2.8l-2.4,0.5l0,3.1c0,0.1-0.1,0.3-0.2,0.4l-1.9,1.4c-0.1,0.1-0.3,0.1-0.4,0.1l-2.9-1L25,40.8
			l2.2,2.2c0.1,0.1,0.1,0.2,0.1,0.4l-0.4,2.3c0,0.1-0.1,0.3-0.2,0.3l-2.8,1.3l0.5,2.4l3.1,0c0.1,0,0.3,0.1,0.4,0.2l1.4,1.9
			c0.1,0.1,0.1,0.3,0.1,0.4l-1,2.9l2.1,1.3l2.2-2.2C32.5,54.2,32.6,54.2,32.7,54.2z"/>
	</g>
	<g>
		<path fill="#FFFFFF" d="M35.4,51.4c-2.3,0-4.3-1.4-5.1-3.6c-0.5-1.4-0.4-2.8,0.2-4.1c0.6-1.3,1.7-2.3,3.1-2.8
			c0.6-0.2,1.2-0.3,1.9-0.3c2.3,0,4.3,1.4,5.1,3.6c1,2.8-0.4,5.9-3.2,6.9C36.7,51.3,36.1,51.4,35.4,51.4z M35.4,41
			c-0.6,0-1.2,0.1-1.7,0.3c-2.6,0.9-3.9,3.8-3,6.4c0.7,2,2.6,3.3,4.7,3.3c0.6,0,1.2-0.1,1.7-0.3c1.3-0.5,2.3-1.4,2.8-2.6
			c0.6-1.2,0.6-2.6,0.2-3.8C39.4,42.3,37.5,41,35.4,41z"/>
	</g>
</g>
<g>
	<g>
		<path fill="#FFFFFF" d="M51,33.8c-0.2,0-0.3,0-0.4-0.2l-2-2.5l-1.9,0.1L45,33.9c-0.1,0.2-0.3,0.2-0.5,0.2l-3-1.1
			c-0.2-0.1-0.3-0.3-0.3-0.5l0.4-3.2l-1.4-1.3l-3.1,0.7c-0.2,0-0.4-0.1-0.5-0.2l-1.3-2.9c-0.1-0.2,0-0.4,0.1-0.5l2.5-2l-0.1-1.9
			l-2.7-1.7C35,19.4,34.9,19.2,35,19l1.1-3c0.1-0.2,0.3-0.3,0.5-0.3l3.2,0.4l1.3-1.4l-0.7-3.1c0-0.2,0.1-0.4,0.2-0.5l2.9-1.3
			c0.2-0.1,0.4,0,0.5,0.1l2,2.5l1.9-0.1l1.7-2.7c0.1-0.2,0.3-0.2,0.5-0.2l3,1.1c0.2,0.1,0.3,0.3,0.3,0.5l-0.4,3.2l1.4,1.3l3.1-0.7
			c0.2,0,0.4,0.1,0.5,0.2l1.3,2.9c0.1,0.2,0,0.4-0.1,0.5l-2.5,2l0.1,1.9l2.7,1.7c0.2,0.1,0.2,0.3,0.2,0.5l-1.1,3
			c-0.1,0.2-0.3,0.3-0.5,0.3l-3.2-0.4l-1.3,1.4l0.7,3.1c0,0.2-0.1,0.4-0.2,0.5L51,33.8C51.1,33.8,51.1,33.8,51,33.8z M46.4,30.4
			C46.4,30.4,46.4,30.4,46.4,30.4l2.4-0.1c0.1,0,0.3,0.1,0.4,0.2l1.9,2.4l2.2-1l-0.7-3c0-0.1,0-0.3,0.1-0.4l1.6-1.7
			c0.1-0.1,0.2-0.2,0.4-0.1l3,0.4l0.8-2.3L56,23c-0.1-0.1-0.2-0.2-0.2-0.4l-0.1-2.4c0-0.1,0.1-0.3,0.2-0.4l2.4-1.9l-1-2.2l-3,0.7
			c-0.1,0-0.3,0-0.4-0.1l-1.7-1.6c-0.1-0.1-0.2-0.2-0.1-0.4l0.4-3l-2.3-0.8L48.4,13c-0.1,0.1-0.2,0.2-0.4,0.2l-2.4,0.1
			c-0.1,0-0.3-0.1-0.4-0.2l-1.9-2.4l-2.2,1l0.7,3c0,0.1,0,0.3-0.1,0.4l-1.6,1.7c-0.1,0.1-0.2,0.2-0.4,0.1l-3-0.4L35.9,19l2.6,1.7
			c0.1,0.1,0.2,0.2,0.2,0.4l0.1,2.4c0,0.1-0.1,0.3-0.2,0.4l-2.4,1.9l1,2.2l3-0.7c0.1,0,0.3,0,0.4,0.1l1.7,1.6
			c0.1,0.1,0.2,0.2,0.1,0.4l-0.4,3l2.3,0.8l1.7-2.6C46.2,30.5,46.3,30.4,46.4,30.4z"/>
	</g>
	<g>
		<path fill="#FFFFFF" d="M48.4,27.1c-2.2,0.5-4.5-0.5-5.7-2.4c-0.8-1.2-1-2.7-0.7-4.1c0.3-1.4,1.2-2.6,2.4-3.4
			c0.5-0.3,1.1-0.6,1.7-0.7c2.2-0.5,4.5,0.5,5.7,2.4c1.6,2.5,0.9,5.9-1.7,7.5C49.6,26.7,49.1,27,48.4,27.1z M46.2,16.9
			c-0.6,0.1-1.1,0.4-1.6,0.7c-2.3,1.5-3,4.6-1.5,6.9c1.1,1.8,3.3,2.7,5.3,2.2c0.6-0.1,1.1-0.4,1.6-0.7c1.1-0.7,1.9-1.8,2.2-3.1
			c0.3-1.3,0.1-2.7-0.7-3.8C50.4,17.3,48.2,16.4,46.2,16.9z"/>
	</g>
</g>
</svg>
