<?xml version="1.0" encoding="utf-8"?>
<!-- Generator: Adobe Illustrator 18.0.0, SVG Export Plug-In . SVG Version: 6.00 Build 0)  -->
<!DOCTYPE svg PUBLIC "-//W3C//DTD SVG 1.1//EN" "http://www.w3.org/Graphics/SVG/1.1/DTD/svg11.dtd">
<svg version="1.1" id="Layer_1" xmlns="http://www.w3.org/2000/svg" xmlns:xlink="http://www.w3.org/1999/xlink" x="0px" y="0px"
	 viewBox="0 0 64 64" enable-background="new 0 0 64 64" xml:space="preserve">
<g id="headphone">
	<g>
		<path fill="#FFFFFF" d="M32,3C16.6,3,4,15.6,4,31c0,15,3.4,24.8,3.4,24.8c1.4,4,4.8,4.4,5.9,4.4c0.5,0,0.8,0,0.8-0.1l0,0
			c0.9,0.9,2.1,1.4,3.4,1.4c0.3,0,0.6,0,0.9-0.1c2.7-0.5,4.5-3.1,4.1-5.8l-3.1-17.7c-0.4-2.4-2.5-4.1-4.9-4.1c-0.3,0-0.6,0-0.9,0.1
			C12,34,10.7,35,10,36.4l0,0c0,0-2.2,0.4-3.7,2.4C6.1,36.4,6,33.8,6,31c0-5.1,1.5-9.9,4.1-13.9C11.5,15.1,17.9,8,32,8
			s20.5,7.1,21.9,9.1c2.6,4,4.1,8.8,4.1,13.9c0,2.8-0.1,5.4-0.3,7.8c-0.3-0.4-0.6-0.7-0.8-0.9c-1.3-1.1-2.7-1.4-2.8-1.4l0,0
			c-0.7-1.4-2-2.4-3.6-2.7c-0.3-0.1-0.6-0.1-0.9-0.1c-2.4,0-4.5,1.7-4.9,4.1l-3.1,17.7c-0.5,2.7,1.3,5.3,4.1,5.8
			c0.3,0,0.6,0.1,0.9,0.1c1.3,0,2.5-0.5,3.4-1.4l0,0c0.1,0,0.4,0.1,0.8,0.1c1.1,0,4.4-0.3,5.9-4.3c0,0,3.4-9.8,3.4-24.8
			C60,15.6,47.4,3,32,3z M13.9,35.7c1.7-0.3,3.2,0.8,3.5,2.4l3.1,17.7c0.3,1.6-0.8,3.2-2.4,3.5c-0.2,0-0.3,0-0.5,0
			c-0.9,0-1.7-0.4-2.3-1.1l-0.1-0.2c-0.3-0.4-0.5-0.8-0.5-1.2l-3.1-17.7c-0.1-0.4,0-0.9,0.1-1.3l0-0.1c0-0.1,0.1-0.1,0.1-0.2
			c0.1-0.2,0.2-0.4,0.3-0.6c0,0,0.1-0.1,0.1-0.1C12.5,36.3,13.1,35.9,13.9,35.7z M10.3,38.4L10.3,38.4l0.2,1c0,0,0,0,0,0l3.1,17.7
			c0,0,0,0,0,0l0.2,1c0,0-0.2,0-0.5,0c-1.3,0-3.7-0.6-4.4-4.4l-1.7-9.5C6.4,39.3,9.9,38.5,10.3,38.4z M32,6c-4.7,0-8.6,0.7-11.7,1.8
			C23.8,6,27.8,5,32,5s8.2,1,11.7,2.8C40.6,6.7,36.7,6,32,6z M49.4,57c-0.1,0.5-0.3,0.9-0.5,1.2l0,0c-0.1,0.1-0.1,0.1-0.2,0.2
			c-0.1,0.1-0.3,0.2-0.4,0.4c-0.1,0.1-0.2,0.1-0.3,0.2c-0.6,0.4-1.3,0.5-2.1,0.4c-1.6-0.3-2.7-1.8-2.4-3.5l3.1-17.7
			c0.2-1.4,1.5-2.5,3-2.5c0.2,0,0.3,0,0.5,0c1,0.2,1.9,0.9,2.3,1.9l0,0.1c0.2,0.5,0.2,1,0.1,1.5L51,48.1L49.4,57z M56.8,44.2
			l-1.7,9.5c-0.7,3.8-3,4.4-4.4,4.4c-0.3,0-0.4,0-0.5,0l0.2-1c0,0,0,0,0,0l3.1-17.7c0,0,0,0,0,0l0.2-1
			C54.1,38.5,57.6,39.3,56.8,44.2z"/>
	</g>
</g>
</svg>
