<?xml version="1.0" encoding="utf-8"?>
<!-- Generator: Adobe Illustrator 18.0.0, SVG Export Plug-In . SVG Version: 6.00 Build 0)  -->
<!DOCTYPE svg PUBLIC "-//W3C//DTD SVG 1.1//EN" "http://www.w3.org/Graphics/SVG/1.1/DTD/svg11.dtd">
<svg version="1.1" id="Layer_1" xmlns="http://www.w3.org/2000/svg" xmlns:xlink="http://www.w3.org/1999/xlink" x="0px" y="0px"
	 viewBox="1 5 62 56" enable-background="new 1 5 62 56" xml:space="preserve">
<g id="monitor">
	<g>
		<circle fill="#37474F" cx="32" cy="46.5" r="1.5"/>
	</g>
	<g>
		<path fill="#37474F" d="M59,9v32H5V9H59L59,9z M60,8H4v34h56V8L60,8z"/>
		<path fill="#37474F" d="M61,5H3C1.9,5,1,5.9,1,7v41c0,1.7,1.3,3,3,3h20.8l-0.5,3.9c-0.1,0.7-0.8,1.7-1.5,1.9l-3.1,1.3
			C19.2,58.2,19,58.6,19,59v1c0,0.6,0.4,1,1,1h24c0.6,0,1-0.4,1-1v-1c0-0.4-0.2-0.8-0.6-0.9l-3.1-1.3c-0.7-0.3-1.4-1.2-1.5-1.9
			L39.2,51H60c1.7,0,3-1.3,3-3V7C63,5.9,62.1,5,61,5z M3,7h58v36H3V7z M40.5,58.7l0.8,0.3H22.7l0.8-0.3c1.4-0.5,2.5-2.1,2.8-3.5
			l0.6-5.1h10.2l0.6,5.2C37.9,56.6,39.1,58.1,40.5,58.7z M61,48c0,0.6-0.4,1-1,1H4c-0.6,0-1-0.4-1-1v-4h58V48z"/>
	</g>
</g>
</svg>
