<?xml version="1.0" encoding="utf-8"?>
<!-- Generator: Adobe Illustrator 18.0.0, SVG Export Plug-In . SVG Version: 6.00 Build 0)  -->
<!DOCTYPE svg PUBLIC "-//W3C//DTD SVG 1.1//EN" "http://www.w3.org/Graphics/SVG/1.1/DTD/svg11.dtd">
<svg version="1.1" id="Layer_1" xmlns="http://www.w3.org/2000/svg" xmlns:xlink="http://www.w3.org/1999/xlink" x="0px" y="0px"
	 viewBox="11 2 42 60" enable-background="new 11 2 42 60" xml:space="preserve">
<g id="tablet">
	<g>
		<path fill="#37474F" d="M49,10v43H15V10H49L49,10z M50,9H14v45h36V9L50,9z"/>
		<g>
			<path fill="#37474F" d="M49,62H15c-2.2,0-4-1.8-4-4V6c0-2.2,1.8-4,4-4h34c2.2,0,4,1.8,4,4v52C53,60.2,51.2,62,49,62z M15,4
				c-1.1,0-2,0.9-2,2v52c0,1.1,0.9,2,2,2h34c1.1,0,2-0.9,2-2V6c0-1.1-0.9-2-2-2H15z"/>
		</g>
		<path fill="#37474F" d="M32,59c-1.1,0-2-0.9-2-2s0.9-2,2-2s2,0.9,2,2S33.1,59,32,59z M32,56c-0.6,0-1,0.4-1,1s0.4,1,1,1
			c0.6,0,1-0.4,1-1S32.6,56,32,56z"/>
		<rect x="31" y="6" fill="#37474F" width="2" height="1"/>
	</g>
</g>
</svg>
