<?xml version="1.0" encoding="utf-8"?>
<!-- Generator: Adobe Illustrator 18.0.0, SVG Export Plug-In . SVG Version: 6.00 Build 0)  -->
<!DOCTYPE svg PUBLIC "-//W3C//DTD SVG 1.1//EN" "http://www.w3.org/Graphics/SVG/1.1/DTD/svg11.dtd">
<svg version="1.1" id="Layer_1" xmlns="http://www.w3.org/2000/svg" xmlns:xlink="http://www.w3.org/1999/xlink" x="0px" y="0px"
	 viewBox="23.5 16 17.1 32" enable-background="new 23.5 16 17.1 32" xml:space="preserve">
<g id="phone_2_">
	<g>
		<g>
			<g>
				<rect x="29.9" y="18.1" fill="#37474F" width="0.5" height="0.5"/>
			</g>
			<g>
				<g>
					<path fill="#37474F" d="M32,44.8c0.3,0,0.5,0.2,0.5,0.5c0,0.3-0.2,0.5-0.5,0.5s-0.5-0.2-0.5-0.5C31.5,45,31.7,44.8,32,44.8
						L32,44.8z M32,44.3c-0.6,0-1.1,0.5-1.1,1.1c0,0.6,0.5,1.1,1.1,1.1c0.6,0,1.1-0.5,1.1-1.1C33.1,44.7,32.6,44.3,32,44.3L32,44.3z
						"/>
				</g>
			</g>
			<g>
				<path fill="#37474F" d="M38.4,20.3v22.9H25.6V20.3H38.4L38.4,20.3z M38.9,19.7H25.1v24h13.9V19.7L38.9,19.7z"/>
			</g>
			<g>
				<path fill="#37474F" d="M37.3,48H26.7c-1.8,0-3.2-1.4-3.2-3.2V19.2c0-1.8,1.4-3.2,3.2-3.2h10.7c1.8,0,3.2,1.4,3.2,3.2v25.6
					C40.5,46.6,39.1,48,37.3,48z M26.7,17.1c-1.2,0-2.1,1-2.1,2.1v25.6c0,1.2,1,2.1,2.1,2.1h10.7c1.2,0,2.1-1,2.1-2.1V19.2
					c0-1.2-1-2.1-2.1-2.1H26.7z"/>
			</g>
			<g>
				<rect x="30.9" y="18.1" fill="#37474F" width="2.1" height="0.5"/>
			</g>
		</g>
	</g>
</g>
</svg>
