<?xml version="1.0" encoding="utf-8"?>
<!-- Generator: Adobe Illustrator 18.0.0, SVG Export Plug-In . SVG Version: 6.00 Build 0)  -->
<!DOCTYPE svg PUBLIC "-//W3C//DTD SVG 1.1//EN" "http://www.w3.org/Graphics/SVG/1.1/DTD/svg11.dtd">
<svg version="1.1" id="Layer_1" xmlns="http://www.w3.org/2000/svg" xmlns:xlink="http://www.w3.org/1999/xlink" x="0px" y="0px"
	 viewBox="2 10 60 48" enable-background="new 2 10 60 48" xml:space="preserve">
<g id="laptop">
	<g>
		<path fill="#37474F" d="M52,14v27H12V14H52L52,14z M53,13H11v29h42V13L53,13z"/>
		<path fill="#37474F" d="M56,44.7V13c0-1.7-1.3-3-3-3H11c-1.7,0-3,1.3-3,3v31.7l-6,8V55c0,1.7,1.3,3,3,3h54c1.7,0,3-1.3,3-3v-2.3
			L56,44.7z M11,12h42c0.6,0,1,0.4,1,1v32H10V13C10,12.4,10.4,12,11,12z M9.5,46h45l5.3,7H39l-1,1H26l-1-1H4.3L9.5,46z M59,56H5
			c-0.6,0-1-0.4-1-1v-1h20.6l0.7,0.7L26,55h12l0.7-0.3l0.7-0.7H60v1C60,55.6,59.6,56,59,56z"/>
		<path fill="#37474F" d="M51.5,48l1.5,2H11l1.5-2H51.5L51.5,48z M52,47H12l-2.4,3.2C9.3,50.6,9.4,51,10,51h44
			c0.6,0,0.7-0.4,0.4-0.8L52,47L52,47z"/>
	</g>
</g>
</svg>
