<?xml version="1.0" encoding="utf-8"?>
<!-- Generator: Adobe Illustrator 18.0.0, SVG Export Plug-In . SVG Version: 6.00 Build 0)  -->
<!DOCTYPE svg PUBLIC "-//W3C//DTD SVG 1.1//EN" "http://www.w3.org/Graphics/SVG/1.1/DTD/svg11.dtd">
<svg version="1.1" id="Layer_1" xmlns="http://www.w3.org/2000/svg" xmlns:xlink="http://www.w3.org/1999/xlink" x="0px" y="0px"
	 viewBox="0 0 64 64" enable-background="new 0 0 64 64" xml:space="preserve">
<g id="phones">
	<g>
		<g>
			<rect x="14" y="53" fill="#FFFFFF" width="2" height="1"/>
			<rect x="22" y="53" fill="#FFFFFF" width="2" height="2"/>
			<g>
				<rect x="30" y="53" fill="#FFFFFF" width="1" height="1"/>
			</g>
		</g>
		<rect x="41" y="13" fill="#FFFFFF" width="6" height="1"/>
		<path fill="#FFFFFF" d="M35,48v10h19V48H35z M47,49v2h-5v-2H47z M47,52v2h-5v-2H47z M36,49h5v2h-5V49z M36,52h5v2h-5V52z M36,57
			v-2h5v2H36z M42,57v-2h5v2H42z M53,57h-5v-2h5V57z M53,54h-5v-2h5V54z M53,51h-5v-2h5V51z"/>
		<rect x="36" y="45" fill="#FFFFFF" width="3" height="1"/>
		<rect x="36" y="41" fill="#FFFFFF" width="3" height="1"/>
		<rect x="50" y="45" fill="#FFFFFF" width="3" height="1"/>
		<rect x="50" y="41" fill="#FFFFFF" width="3" height="1"/>
		<path fill="#FFFFFF" d="M53,17v21H36V17H53L53,17z M54,16H35v23h19V16L54,16z"/>
		<path fill="#FFFFFF" d="M54,11c0.5,0,1,0.5,1,1v47c0,0.5-0.5,1-1,1H35c-0.5,0-1-0.5-1-1V12c0-0.5,0.5-1,1-1H54L54,11z M54,9H35
			c-1.7,0-3,1.4-3,3v47c0,1.7,1.3,3,3,3h19c1.7,0,3-1.3,3-3V12C57,10.4,55.7,9,54,9L54,9z"/>
		<path fill="#FFFFFF" d="M47,41v5h-5v-5H47L47,41z M47,40h-5c-0.5,0-1,0.5-1,1v5c0,0.5,0.5,1,1,1h5c0.5,0,1-0.5,1-1v-5
			C48,40.5,47.5,40,47,40L47,40z"/>
		<rect x="19" y="6" fill="#FFFFFF" width="1" height="1"/>
		<rect x="21" y="6" fill="#FFFFFF" width="4" height="1"/>
		<path fill="#FFFFFF" d="M31,51H12V10h19.6c0.2-0.4,0.5-0.7,0.8-1H11v43h20V51z"/>
		<path fill="#FFFFFF" d="M11,57c-0.6,0-1-0.4-1-1V5c0-0.6,0.4-1,1-1h24c0.6,0,1,0.4,1,1v3h2V5c0-1.7-1.3-3-3-3H11C9.3,2,8,3.3,8,5
			v51c0,1.7,1.3,3,3,3h20v-2H11z"/>
	</g>
</g>
</svg>
