<?xml version="1.0" encoding="utf-8"?>
<!-- Generator: Adobe Illustrator 18.0.0, SVG Export Plug-In . SVG Version: 6.00 Build 0)  -->
<!DOCTYPE svg PUBLIC "-//W3C//DTD SVG 1.1//EN" "http://www.w3.org/Graphics/SVG/1.1/DTD/svg11.dtd">
<svg version="1.1" id="Layer_1" xmlns="http://www.w3.org/2000/svg" xmlns:xlink="http://www.w3.org/1999/xlink" x="0px" y="0px"
	 viewBox="0 0 500 500" enable-background="new 0 0 500 500" xml:space="preserve">
<path fill="#FFFFFF" d="M452,164.1C452,104,403.1,55,342.9,55c-38.6,0-73.2,19.8-92.9,51.6C230.2,74.8,195.7,55,157.1,55
	C96.9,55,48,104,48,164.1c0,38.6,19.8,73.2,51.6,92.9C67.8,276.8,48,311.3,48,350C48,410.1,96.9,459,157.1,459
	c38.2,0,73.2-19.8,92.9-51.6c19.8,31.4,54.3,51.6,92.9,51.6C403.1,459,452,410.1,452,350c0-38.2-19.8-73.2-51.6-92.9
	C432.2,237.3,452,202.7,452,164.1z M429.6,350c0,47.6-39.1,86.6-86.6,86.6c-38.6,0-72.7-30.1-80.4-67.3c3.6,0,8.5,0.4,9.9-4.5
	l14.4-62.8l50.7,50.7l-44.9,44.9c-1.3,1.3-1.8,3.1-1.8,4.9s1.3,3.1,3.1,4l14.8,7.6c0.9,0.4,1.8,0.4,2.7,0.4c1.3,0,2.7-0.4,4-1.8
	l37.3-37.3c1.3-1.3,1.8-3.1,1.3-4.9l-3.1-15.7l47.1-47.1c1.3-1.3,1.8-3.1,1.8-4.9c0-1.8-1.3-3.1-3.1-4l-14.8-7.6
	c-2.2-0.9-4.9-0.4-6.3,0.9l-37.3,37.3c-1.3,1.3-1.8,3.1-1.3,4.9v0.4L290,288.9c14.8-13,34.1-21.1,55.7-21.1
	C389.6,267.8,429.6,304.6,429.6,350z M157.1,436.6c-47.6,0-86.6-39.1-86.6-86.6c0-44.9,40-81.7,84.4-81.7c21.1,0,40.8,8.1,55.7,21.1
	l-46.7,45.8v-0.4c0.4-1.8,0-3.6-1.3-4.9l-37.3-37.3c-1.8-1.8-4.5-2.2-6.3-0.9l-14.8,7.6c-1.8,0.9-2.7,2.2-3.1,4s0.4,3.6,1.8,4.9
	l46.7,46.7l-3.1,15.7c-0.4,1.8,0,3.6,1.3,4.9l37.3,37.3c0.9,0.9,2.7,1.8,4,1.8c0.9,0,1.8,0,2.7-0.4l14.8-7.6c1.8-0.9,2.7-2.2,3.1-4
	s-0.4-3.6-1.8-4.9l-44.9-44.9l50.3-50.7l14.4,62.8c0.9,4.9,5.8,4.5,9.9,4.5C229.8,406.5,195.7,436.6,157.1,436.6z M70.4,164.1
	c0-47.6,39.1-86.6,86.6-86.6c38.6,0,72.7,30.1,80.4,67.3c-3.6,0-8.5-0.4-9.9,4.5l-14.4,62.8l-45.8-45.8l6.7-0.4
	c1.8,0,3.6-1.3,4.5-2.7l26.5-45.8c1.3-2.2,0.9-4.9-0.4-6.7l-11.2-12.6c-1.3-1.3-3.1-2.2-4.9-1.8c-1.8,0-3.6,1.3-4.5,2.7l-32.8,57
	l-16.2,0.9c-1.8,0-3.6,1.3-4.5,2.7l-26.5,45.8c-1.3,2.2-0.9,4.9,0.4,6.7l11.2,12.6c0.9,1.3,2.7,1.8,4,1.8h0.4c1.8,0,3.6-1.3,4.5-2.7
	l31-53l54.3,54.3c-14.8,13-34.1,21.1-55.7,21.1C110.4,246.3,70.4,209.4,70.4,164.1z M278.3,223.8v66l-5.8,24.7V199.6L278.3,223.8z
	 M261.2,156v202h-22.4V156H261.2z M222.2,290.2v-66.4l5.8-24.2V314L222.2,290.2z M210.9,275c-14.4-10.3-31.4-17.1-49.8-18
	c18.4-1.3,35.9-7.6,49.8-18V275z M289.5,239.1c14.4,10.3,31.4,17.1,49.8,18c-18.4,1.3-35.9,7.6-49.8,18V239.1L289.5,239.1z
	 M164.7,155.6l25.1-44l3.1,3.6l-22.9,40L164.7,155.6z M144.5,167.7l-25.1,44l-3.1-3.6l22.9-40L144.5,167.7z M151.2,341l-35.9-35.9
	l4.5-2.2l32.3,32.3L151.2,341z M158,363.9l35.9,35.9l-4.5,2.2l-32.3-32.8L158,363.9z M347.9,335.6l32.3-32.3l4.5,2.2l-35.9,35.9
	L347.9,335.6z M342.9,369.3l-32.3,32.3l-4.5-2.2l35.9-35.9L342.9,369.3z M345.6,246.3c-21.1,0-40.8-8.1-55.7-21.1l54.3-54.3l31,53.4
	c0.9,1.3,2.7,2.7,4.5,2.7h0.4c1.8,0,3.1-0.9,4-1.8l11.2-12.6c1.8-1.8,1.8-4.5,0.4-6.7l-26.5-45.8c-0.9-1.8-2.7-2.7-4.5-2.7
	l-16.2-1.3L316,99c-0.9-1.3-2.7-2.7-4.5-2.7s-3.6,0.4-4.9,1.8l-11.2,12.6c-1.8,1.8-1.8,4.5-0.4,6.7l26.5,45.8
	c0.9,1.8,2.7,2.7,4.5,2.7l6.7,0.4l-45.8,45.8l-14.4-62.8c-0.9-4.9-5.8-4.5-9.9-4.5c7.6-37.3,41.7-67.3,80.4-67.3
	c47.6,0,86.6,39.1,86.6,86.6C429.6,209.4,389.6,246.3,345.6,246.3z M355.5,167.7l5.4,0.4l22.9,40l-3.1,3.6L355.5,167.7z
	 M335.3,155.6l-5.4-0.4l-22.9-40l3.1-3.6L335.3,155.6z"/>
</svg>
