<?xml version="1.0" encoding="utf-8"?>
<!-- Generator: Adobe Illustrator 18.0.0, SVG Export Plug-In . SVG Version: 6.00 Build 0)  -->
<!DOCTYPE svg PUBLIC "-//W3C//DTD SVG 1.1//EN" "http://www.w3.org/Graphics/SVG/1.1/DTD/svg11.dtd">
<svg version="1.1" id="Layer_1" xmlns="http://www.w3.org/2000/svg" xmlns:xlink="http://www.w3.org/1999/xlink" x="0px" y="0px"
	 viewBox="104.6 203.4 502.5 84.9" style="enable-background:new 104.6 203.4 502.5 84.9;" xml:space="preserve">
<g>
	<path style="fill:#FFFFFF;" d="M194,203.4c-17.6,0-31.7,12.5-30.1,29.9c1,13,8.9,24.8,27.8,24.5c4.9,0,10.2-1.3,14.3-5.6v0.5
		c-4.1,17.9-17.9,19.9-33.2,20.2c-6.1,0-6.6,14,0,14.6c33.2,2.6,51.8-14.8,51.8-48.8C224.7,219.4,215,203.9,194,203.4z M199.4,212
		c0,4.6-3.6,7.4-6.1,7.7C192.5,216.6,194.3,212.3,199.4,212z M206,236.3c-0.8,2.3-3.3,6.9-5.4,7.9c-3.3,1.8-5.1-1.8-9.4-0.3
		c-2.3,1-3.6,1.5-6.1-0.8c-5.1-4.9-8.9-17.6-1.3-22.2c4.6-2.8,7.4,0.8,10.2,0c2.3-0.8,4.9-2.6,9.2-0.3c0.5,0.3,1.8,1.3,2,2
		c-0.8,1-3.6,2.3-3.3,6.9c0.3,2.8,1.8,4.6,4.1,5.9C206.3,235.8,206.3,235.8,206,236.3z"/>
	<path style="fill:#FFFFFF;" d="M266.3,225.6v3.1c-5.1-8.2-16.3-9.2-24-5.6c-20.7,9.4-16.8,48.2,9.2,48.2c5.9,0,12-2.3,14.8-7.7v2.8
		c0.5,6.6,18.1,6.4,18.4,0v-40.8C283.6,219.2,266.8,219.7,266.3,225.6z M257.8,258c-11,0-10.7-15.1-7.4-20.2
		c4.1-6.1,14.6-5.4,16.3,3.8c0.3,1.5,0.3,2.8,0.3,4.3C267,251.9,264.7,258,257.8,258z"/>
	<path style="fill:#FFFFFF;" d="M148.3,245.2c-2-1-4.3-1.8-6.9-2.3v-0.3c8.9-3.1,15.1-9.2,15.1-18.9c0-9.4-6.6-15.3-15.6-18.1
		c-3.3-1-7.1-1.5-11.5-1.5c-7.9,0-14.8,1.3-20.9,5.1c-4.3,2.8-3.3,12.5,1.5,12.5c4.1,0,13.5-5.4,21.7-2c7.7,3.3,7.7,14-4.1,16.3
		c-3.8,0.8-8.4,0.5-12.5,0.5c-4.3,0-4.3,13.8,0.3,13.8c7.1,0,18.1-0.8,22.5,6.6c1.8,3.1,1.8,7.7-0.3,10.7c-2.8,3.8-8.2,5.4-13.3,5.4
		c-4.9,0-9.7-1-14.8-2.3c-4.6-1.3-7.4,11-2,13.5c5.9,2.6,11.7,3.6,18.1,3.6c12,0,25.5-3.8,31.1-15.1
		C161.9,262.8,158.8,250.6,148.3,245.2z"/>
	<path style="fill:#FFFFFF;" d="M323.4,221.2c-5.6,0-11.5,2-14.8,7.1v-2.8c-1.5-6.6-17.6-6.4-18.4,0c0,19.4,0,38.8,0,57.9
		c0.5,6.4,17.9,6.1,18.4,0v-20.2c6.6,10.7,23.2,8.9,30.9,0.8C351.5,251.1,346.9,221.2,323.4,221.2z M317.3,258
		c-7.1-0.3-9.2-6.1-9.2-12.3s2-12,9.2-12c7.1,0,9.4,6.1,9.4,12C326.8,251.9,324.5,258,317.3,258z"/>
	<path style="fill:#FFFFFF;" d="M548.1,222.5c-7.1-3.8-15.6-1-19.1,6.1v-3.1c-0.8-6.4-17.6-6.9-18.1,0v40.8c0.8,6.4,18.1,6.6,18.4,0
		v-19.9c-0.3-10.2,7.9-15.3,17.6-11C552.2,238.1,554.5,225.6,548.1,222.5z"/>
	<path style="fill:#FFFFFF;" d="M496.5,251.9h-3.1c-4.3,0-7.9,3.6-7.9,7.9v3.6c0,4.3,3.6,7.9,7.9,7.9h3.1c4.3,0,7.9-3.6,7.9-7.9
		v-3.6C504.4,255.4,500.9,251.9,496.5,251.9z"/>
	<path style="fill:#FFFFFF;" d="M588.7,225.8v22c0,4.1-1,9.2-5.9,10.5c-4.1,1-7.1-1.3-7.7-5.4c0-1-0.3-2.3-0.3-3.6v-23.5
		c0-6.4-17.6-7.1-18.4-0.3v23.5c0,9.4,1.5,18.4,11.7,21.4c7.1,2,16.8-0.3,20.4-6.9v2.6c0.3,7.1,17.9,6.9,18.4,0.5v-40.8
		C606.3,220,590.5,218.7,588.7,225.8z"/>
	<path style="fill:#FFFFFF;" d="M442.4,227.1c-14.6,14.6-9.7,49.3,25.8,43.4c2.3-0.5,7.4-1.5,10.2-3.8c3.3-2-1-12.3-7.4-9.7
		c-5.4,2-20.2,4.1-19.9-8.4c5.9,2,34.2,4.9,31.4-11C478.9,216.4,452.1,217.4,442.4,227.1z M469,239.4c-1.5,4.9-17.4,3.1-17.4-0.5
		c-0.3-4.3,4.1-7.7,10-7.4C466.7,231.7,470.2,235.5,469,239.4z"/>
	<path style="fill:#FFFFFF;" d="M384.2,221.2c-5.6,0-11.5,2-14.8,7.1v-2.8c-1.8-6.6-17.6-6.4-18.4,0c0,19.4,0,38.8,0,57.9
		c0.5,6.4,17.9,6.1,18.4,0v-20.2c6.6,10.7,23.2,8.9,30.9,0.8C412.3,251.1,407.7,221.2,384.2,221.2z M377.8,258
		c-7.1-0.3-9.2-6.1-9.2-12.3s2-12,9.2-12c7.1,0,9.4,6.1,9.4,12C387.3,251.9,385,258,377.8,258z"/>
	<path style="fill:#FFFFFF;" d="M411.5,208.7c0,20.9,0,36.8,0,57.7c0.5,6.9,18.1,6.1,18.4,0c0-19.1,0-38.5,0-57.7
		C429.1,201.8,412,202.3,411.5,208.7z"/>
</g>
</svg>
