<?xml version="1.0" encoding="utf-8"?>
<!-- Generator: Adobe Illustrator 18.0.0, SVG Export Plug-In . SVG Version: 6.00 Build 0)  -->
<!DOCTYPE svg PUBLIC "-//W3C//DTD SVG 1.1//EN" "http://www.w3.org/Graphics/SVG/1.1/DTD/svg11.dtd">
<svg version="1.1" id="Layer_1" xmlns="http://www.w3.org/2000/svg" xmlns:xlink="http://www.w3.org/1999/xlink" x="0px" y="0px"
	 viewBox="108.7 40.6 419.9 419.9" enable-background="new 108.7 40.6 419.9 419.9" xml:space="preserve">
<g>
	<path fill="#04B004" d="M318.7,141.4c-59.3,0-108.4,48.3-108.4,108.4s48.3,108.4,108.4,108.4S427.1,309,427.1,249.7
		S378,141.4,318.7,141.4z M318.7,319.2c-38.1,0-69.4-31.3-69.4-69.4s31.3-69.4,69.4-69.4s69.4,31.3,69.4,69.4
		S356.8,319.2,318.7,319.2z"/>
	<circle fill="#04B004" cx="431.3" cy="138.8" r="24.6"/>
	<path fill="#04B004" d="M494.8,75.3c-22-22.9-53.3-34.7-88.9-34.7H231.5c-73.7,0-122.8,49.1-122.8,122.8v173.5
		c0,36.4,11.9,67.7,35.6,90.6c22.9,22,53.3,33,88,33H405c36.4,0,66.9-11.9,88.9-33c22.9-22,34.7-53.3,34.7-89.7V163.4
		C528.7,127.8,516.8,97.4,494.8,75.3z M489.7,337.8c0,26.2-7.6,47.4-22.9,61.8c-15.2,14.4-36.4,22-61.8,22H232.4
		c-25.4,0-46.6-7.6-61.8-22c-15.2-15.2-22.9-36.4-22.9-62.6V163.4c0-25.4,7.6-46.6,22.9-61.8c14.4-14.4,36.4-22,61.8-22h174.4
		c25.4,0,46.6,7.6,61.8,22.9c14.4,15.2,22.9,36.4,22.9,61v174.4h-1.8V337.8z"/>
</g>
</svg>
