<?xml version="1.0" encoding="utf-8"?>
<!-- Generator: Adobe Illustrator 18.0.0, SVG Export Plug-In . SVG Version: 6.00 Build 0)  -->
<!DOCTYPE svg PUBLIC "-//W3C//DTD SVG 1.1//EN" "http://www.w3.org/Graphics/SVG/1.1/DTD/svg11.dtd">
<svg version="1.1" id="Layer_1" xmlns="http://www.w3.org/2000/svg" xmlns:xlink="http://www.w3.org/1999/xlink" x="0px" y="0px"
	 viewBox="-10.5 208.3 639.8 107.9" enable-background="new -10.5 208.3 639.8 107.9" xml:space="preserve">
<g>
	<path fill="#2ECC71" d="M103.5,208.3c-22.4,0-40.4,15.9-38.3,38.1c1.3,16.6,11.3,31.6,35.4,31.2c6.2,0,13-1.7,18.2-7.1v0.6
		c-5.2,22.8-22.8,25.3-42.3,25.7c-7.8,0-8.4,17.8,0,18.6c42.3,3.3,66-18.8,66-62.2C142.6,228.7,130.2,209,103.5,208.3z M110.3,219.3
		c0,5.9-4.6,9.4-7.8,9.8C101.6,225.1,103.8,219.7,110.3,219.3z M118.7,250.2c-1,2.9-4.2,8.8-6.9,10.1c-4.2,2.3-6.5-2.3-12-0.4
		c-2.9,1.3-4.6,1.9-7.8-1c-6.5-6.2-11.3-22.4-1.7-28.3c5.9-3.6,9.4,1,13,0c2.9-1,6.2-3.3,11.7-0.4c0.6,0.4,2.3,1.7,2.5,2.5
		c-1,1.3-4.6,2.9-4.2,8.8c0.4,3.6,2.3,5.9,5.2,7.5C119.1,249.6,119.1,249.6,118.7,250.2z"/>
	<path fill="#2ECC71" d="M195.5,236.6v3.9c-6.5-10.4-20.8-11.7-30.6-7.1c-26.4,12-21.4,61.4,11.7,61.4c7.5,0,15.3-2.9,18.8-9.8v3.6
		c0.6,8.4,23.1,8.2,23.4,0v-52C217.6,228.5,196.2,229.1,195.5,236.6z M184.7,277.9c-14,0-13.6-19.2-9.4-25.7
		c5.2-7.8,18.6-6.9,20.8,4.8c0.4,1.9,0.4,3.6,0.4,5.5C196.4,270.1,193.5,277.9,184.7,277.9z"/>
	<path fill="#2ECC71" d="M45.3,261.6c-2.5-1.3-5.5-2.3-8.8-2.9v-0.4c11.3-3.9,19.2-11.7,19.2-24.1c0-12-8.4-19.5-19.9-23.1
		c-4.2-1.3-9-1.9-14.6-1.9c-10.1,0-18.8,1.7-26.6,6.5c-5.5,3.6-4.2,15.9,1.9,15.9c5.2,0,17.2-6.9,27.6-2.5
		c9.8,4.2,9.8,17.8-5.2,20.8c-4.8,1-10.7,0.6-15.9,0.6c-5.5,0-5.5,17.6,0.4,17.6c9,0,23.1-1,28.7,8.4c2.3,3.9,2.3,9.8-0.4,13.6
		c-3.6,4.8-10.4,6.9-16.9,6.9c-6.2,0-12.4-1.3-18.8-2.9c-5.9-1.7-9.4,14-2.5,17.2c7.5,3.3,14.9,4.6,23.1,4.6
		c15.3,0,32.5-4.8,39.6-19.2C62.6,284,58.6,268.4,45.3,261.6z"/>
	<path fill="#2ECC71" d="M268.3,231c-7.1,0-14.6,2.5-18.8,9v-3.6c-1.9-8.4-22.4-8.2-23.4,0c0,24.7,0,49.4,0,73.7
		c0.6,8.2,22.8,7.8,23.4,0v-25.7c8.4,13.6,29.5,11.3,39.4,1C304.1,269.1,298.2,231,268.3,231z M260.5,277.9
		c-9-0.4-11.7-7.8-11.7-15.7s2.5-15.3,11.7-15.3c9,0,12,7.8,12,15.3C272.6,270.1,269.7,277.9,260.5,277.9z"/>
	<path fill="#2ECC71" d="M554.5,232.7c-9-4.8-19.9-1.3-24.3,7.8v-3.9c-1-8.2-22.4-8.8-23.1,0v52c1,8.2,23.1,8.4,23.4,0v-25.3
		c-0.4-13,10.1-19.5,22.4-14C559.7,252.5,562.6,236.6,554.5,232.7z"/>
	<path fill="#2ECC71" d="M488.7,270.1h-3.9c-5.5,0-10.1,4.6-10.1,10.1v4.6c0,5.5,4.6,10.1,10.1,10.1h3.9c5.5,0,10.1-4.6,10.1-10.1
		v-4.6C498.8,274.6,494.3,270.1,488.7,270.1z"/>
	<path fill="#2ECC71" d="M606.2,236.9v28c0,5.2-1.3,11.7-7.5,13.4c-5.2,1.3-9-1.7-9.8-6.9c0-1.3-0.4-2.9-0.4-4.6v-29.9
		c0-8.2-22.4-9-23.4-0.4v29.9c0,12,1.9,23.4,14.9,27.3c9,2.5,21.4-0.4,26-8.8v3.3c0.4,9,22.8,8.8,23.4,0.6v-52
		C628.6,229.5,608.5,227.8,606.2,236.9z"/>
	<path fill="#2ECC71" d="M419.8,238.5c-18.6,18.6-12.4,62.8,32.9,55.3c2.9-0.6,9.4-1.9,13-4.8c4.2-2.5-1.3-15.7-9.4-12.4
		c-6.9,2.5-25.7,5.2-25.3-10.7c7.5,2.5,43.6,6.2,40-14C466.3,224.9,432.2,226.2,419.8,238.5z M453.7,254.2
		c-1.9,6.2-22.2,3.9-22.2-0.6c-0.4-5.5,5.2-9.8,12.7-9.4C450.8,244.4,455.2,249.2,453.7,254.2z"/>
	<path fill="#2ECC71" d="M345.7,231c-7.1,0-14.6,2.5-18.8,9v-3.6c-2.3-8.4-22.4-8.2-23.4,0c0,24.7,0,49.4,0,73.7
		c0.6,8.2,22.8,7.8,23.4,0v-25.7c8.4,13.6,29.5,11.3,39.4,1C381.5,269.1,375.6,231,345.7,231z M337.6,277.9
		c-9-0.4-11.7-7.8-11.7-15.7s2.5-15.3,11.7-15.3c9,0,12,7.8,12,15.3C349.7,270.1,346.7,277.9,337.6,277.9z"/>
	<path fill="#2ECC71" d="M380.5,215.1c0,26.6,0,46.9,0,73.5c0.6,8.8,23.1,7.8,23.4,0c0-24.3,0-49,0-73.5
		C402.9,206.3,381.1,206.9,380.5,215.1z"/>
</g>
</svg>
