<?xml version="1.0" encoding="utf-8"?>
<!-- Generator: Adobe Illustrator 18.0.0, SVG Export Plug-In . SVG Version: 6.00 Build 0)  -->
<!DOCTYPE svg PUBLIC "-//W3C//DTD SVG 1.1//EN" "http://www.w3.org/Graphics/SVG/1.1/DTD/svg11.dtd">
<svg version="1.1" id="Capa_1" xmlns="http://www.w3.org/2000/svg" xmlns:xlink="http://www.w3.org/1999/xlink" x="0px" y="0px"
	 viewBox="0 0 30 30" style="enable-background:new 0 0 30 30;" xml:space="preserve">
<path style="fill:#FFFFFF;" d="M18.9,16.1h-3.4V9c0-0.4-0.3-0.8-0.8-0.8S14,8.6,14,9v7.9l0,0l0,0c0,0.1,0,0.1,0,0.2v0.1
	c0,0.1,0.1,0.1,0.1,0.2c0,0,0,0.1,0.1,0.1c0,0,0.1,0.1,0.2,0.1c0,0,0,0,0.1,0s0.2,0.1,0.3,0.1l0,0h4.1c0.4,0,0.7-0.3,0.7-0.8
	S19.3,16.1,18.9,16.1z M4.3,8.1c0.1,0,0.3,0,0.4-0.1l6.6-4.5c0.2-0.1,0.3-0.3,0.3-0.5s0-0.4-0.1-0.6c-0.9-1.3-2.4-2.1-3.9-2.1
	c-1,0-1.9,0.3-2.7,0.8c-1,0.7-1.8,1.8-2,3.1s0,2.5,0.8,3.6C3.8,8,4.1,8.1,4.3,8.1z M4.4,4.5C4.6,3.6,5,2.9,5.8,2.4
	C6.3,2,7,1.8,7.6,1.8c0.8,0,1.6,0.3,2.2,0.8L4.6,6.2C4.4,5.7,4.3,5.1,4.4,4.5z M27.1,4.2c-0.2-1.2-0.9-2.3-2-3.1
	c-0.8-0.5-1.7-0.8-2.7-0.8c-1.6,0-3,0.8-3.9,2.1c-0.1,0.2-0.2,0.4-0.1,0.6c0,0.2,0.1,0.4,0.3,0.5L25.3,8c0.1,0.1,0.3,0.1,0.4,0.1
	h0.1c0.2,0,0.4-0.1,0.5-0.3C27,6.7,27.3,5.4,27.1,4.2z M25.4,6.2l-5.2-3.6c1.1-1,2.8-1.1,4-0.3c0.7,0.5,1.2,1.2,1.4,2.1
	C25.7,5.1,25.6,5.7,25.4,6.2z M26.1,16.5c0-6.2-5.1-11.3-11.3-11.3S3.5,10.3,3.5,16.5c0,3.6,1.7,6.8,4.3,8.9l-2.5,3.1
	c-0.3,0.3-0.2,0.8,0.1,1.1c0.1,0.1,0.3,0.2,0.5,0.2s0.4-0.1,0.6-0.3l2.6-3.2c1.7,1,3.6,1.6,5.7,1.6c2.2,0,4.3-0.6,6-1.7l2.8,3.4
	c0.1,0.2,0.4,0.3,0.6,0.3s0.3-0.1,0.5-0.2c0.3-0.3,0.4-0.7,0.1-1.1L22,25.2C24.5,23.1,26.1,20,26.1,16.5z M14.8,26.3
	c-5.4,0-9.8-4.4-9.8-9.8s4.4-9.8,9.8-9.8s9.8,4.4,9.8,9.8S20.2,26.3,14.8,26.3z"/>
</svg>
