<?xml version="1.0" encoding="utf-8"?>
<!-- Generator: Adobe Illustrator 18.0.0, SVG Export Plug-In . SVG Version: 6.00 Build 0)  -->
<!DOCTYPE svg PUBLIC "-//W3C//DTD SVG 1.1//EN" "http://www.w3.org/Graphics/SVG/1.1/DTD/svg11.dtd">
<svg version="1.1" id="Слой_1" xmlns="http://www.w3.org/2000/svg" xmlns:xlink="http://www.w3.org/1999/xlink" x="0px" y="0px"
	 viewBox="1.3 1.3 24 24" enable-background="new 1.3 1.3 24 24" xml:space="preserve">
<g id="Chevron_Up_Circle">
	<path fill="#121313" d="M13.3,1.3c-6.6,0-12,5.4-12,12c0,6.6,5.4,12,12,12c6.6,0,12-5.4,12-12C25.3,6.7,20,1.3,13.3,1.3z
		 M13.3,23.8c-5.8,0-10.5-4.7-10.5-10.5S7.5,2.8,13.3,2.8s10.5,4.7,10.5,10.5S19.1,23.8,13.3,23.8z"/>
	<path fill="#121313" d="M13.9,9.8c-0.3-0.3-0.8-0.3-1.1,0L7.5,15c-0.3,0.3-0.3,0.8,0,1.1c0.3,0.3,0.8,0.3,1.1,0l4.7-4.6L18,16
		c0.3,0.3,0.8,0.3,1.1,0c0.3-0.3,0.3-0.8,0-1.1L13.9,9.8z"/>
</g>
</svg>
