<?xml version="1.0" encoding="utf-8"?>
<!-- Generator: Adobe Illustrator 18.0.0, SVG Export Plug-In . SVG Version: 6.00 Build 0)  -->
<!DOCTYPE svg PUBLIC "-//W3C//DTD SVG 1.1//EN" "http://www.w3.org/Graphics/SVG/1.1/DTD/svg11.dtd">
<svg version="1.1" id="Слой_1" xmlns="http://www.w3.org/2000/svg" xmlns:xlink="http://www.w3.org/1999/xlink" x="0px" y="0px"
	 viewBox="4 4 24 24" enable-background="new 4 4 24 24" xml:space="preserve">
<g id="Chevron_Down_Circle">
	<path fill="#121313" d="M16,4C9.4,4,4,9.4,4,16c0,6.6,5.4,12,12,12c6.6,0,12-5.4,12-12C28,9.4,22.6,4,16,4z M16,26.5
		c-5.8,0-10.5-4.7-10.5-10.5S10.2,5.5,16,5.5S26.5,10.2,26.5,16S21.8,26.5,16,26.5z"/>
	<path fill="#121313" d="M20.7,13.3L16,17.9l-4.7-4.6c-0.3-0.3-0.8-0.3-1.1,0c-0.3,0.3-0.3,0.8,0,1.1l5.2,5.2c0.3,0.3,0.8,0.3,1.1,0
		l5.2-5.2c0.3-0.3,0.3-0.8,0-1.1C21.5,13,21,13,20.7,13.3z"/>
</g>
</svg>
